<svg xmlns="http://www.w3.org/2000/svg" version="1.1" xmlns:xlink="http://www.w3.org/1999/xlink" width="512" height="512" x="0" y="0" viewBox="0 0 512 512" style="enable-background:new 0 0 512 512" xml:space="preserve" class=""><g><path fill="#463b84" d="m431.757 86.533 21.21-21.21 49.108 49.108-21.21 21.21z" opacity="1" data-original="#463b84" class=""></path><path fill="#6354b1" d="M445.953 58.207 397.606 9.86l-21.213 21.213L424.74 79.42l21.213-21.213z" opacity="1" data-original="#6354b1" class=""></path><path fill="#6affd5" d="m481.704 0-74.983 44.687-18.935 34.083L395 95l15.508 6.492L448 76l48.852-60.852z" opacity="1" data-original="#a7eaf9" class=""></path><path fill="#8efaa0" d="M410.508 101.492 410 125l23.23-.786 34.083-18.935L512 30.296l-15.148-15.148z" opacity="1" data-original="#72bbff" class=""></path><path fill="#6affd5" d="M284.921 183.163 0 278.059V310l140.854 61.146L196 340l110.879-134.879z" opacity="1" data-original="#a7eaf9" class=""></path><path fill="#8efaa0" d="M140.854 371.146 202 512h31.941l94.896-284.921-21.958-21.958z" opacity="1" data-original="#72bbff" class=""></path><path fill="#f4f4f7" d="M387.786 78.77 215.604 250.952l22.722 22.722L337 191l73.508-89.508z" opacity="1" data-original="#f4f4f7"></path><path fill="#e2e2eb" d="M238.284 273.678 410.44 101.522l22.719 22.719-172.156 172.156z" opacity="1" data-original="#e2e2eb"></path><path fill="#6354b1" d="m173.787 274.574-21.213 21.213 31.82 31.819L209 325l-3.394-18.606z" opacity="1" data-original="#6354b1" class=""></path><path fill="#463b84" d="m184.34 327.595 21.21-21.21 31.814 31.815-21.21 21.21z" opacity="1" data-original="#463b84" class=""></path></g></svg>